<svg height="19" viewBox="0 0 19 19" width="19" xmlns="http://www.w3.org/2000/svg"><path d="m124.359335.98437265h-15.754048c-.721897 0-1.308411.59472515-1.308411 1.32479352v15.72536913c0 .7300684.586514 1.3247935 1.308411 1.3247935h15.754048c.721857 0 1.312497-.5947251 1.312497-1.3247935v-15.72536913c0-.73006837-.59064-1.32479352-1.312497-1.32479352zm-11.508941 15.74996245h-2.723447v-8.7691117h2.727533v8.7691117zm-1.361723-9.96677311c-.873623 0-1.579098-.70956061-1.579098-1.5790978s.705475-1.5790978 1.579098-1.5790978c.869537 0 1.579097.70956061 1.579097 1.5790978 0 .87362272-.705475 1.5790978-1.579097 1.5790978zm11.570464 9.96677311h-2.723407v-4.2656148c0-1.0171771-.020508-2.3255884-1.415036-2.3255884-1.419161 0-1.636535 1.1074192-1.636535 2.2517684v4.3394348h-2.723447v-8.7691117h2.612697v1.1976614h.03693c.365014-.6890929 1.255059-1.41503569 2.579852-1.41503569 2.756252 0 3.268946 1.81697985 3.268946 4.17945819z" fill="#979797" transform="translate(-106.671876 -.546832)"/></svg>