<svg height="21" viewBox="0 0 21 21" width="21" xmlns="http://www.w3.org/2000/svg"><path d="m20.3437015 10.1718507c0-5.61912718-4.5527235-10.1718507-10.1718508-10.1718507-5.61912718 0-10.1718507 4.55272352-10.1718507 10.1718507 0 5.0769132 3.71971579 9.2850903 8.58249907 10.0488042v-7.1083834h-2.58397822v-2.9404208h2.58397822v-2.24107394c0-2.54913104 1.51757453-3.95719729 3.84192123-3.95719729 1.113147 0 2.2772029.19850874 2.2772029.19850874v2.50194716h-1.2829769c-1.2632702 0-1.6574439.78422169-1.6574439 1.5885506v1.90926473h2.8210592l-.4511708 2.9404208h-2.3698884v7.1083834c4.8627833-.7637139 8.5824991-4.971891 8.5824991-10.0488042z" fill="#979797" transform="translate(.328124 .453168)"/></svg>