<svg height="17" viewBox="0 0 23 17" width="23" xmlns="http://www.w3.org/2000/svg"><path d="m181.028777 4.76120577c-.257629-.97003324-1.016657-1.73398749-1.980401-1.99321844-1.746845-.47111781-8.751528-.47111781-8.751528-.47111781s-7.004643 0-8.751528.47111781c-.963745.259271-1.722773 1.0231852-1.980401 1.99321844-.468074 1.75822029-.468074 5.42654653-.468074 5.42654653s0 3.6683662.468074 5.4265865c.257628.9699932 1.016656 1.7021444 1.980401 1.9613754 1.746885.4711178 8.751528.4711178 8.751528.4711178s7.004643 0 8.751528-.4711178c.963744-.259231 1.722772-.9913822 1.980401-1.9613754.468073-1.7582203.468073-5.4265865.468073-5.4265865s0-3.66832624-.468073-5.42654653zm-13.022871 8.75713553v-6.66117801l5.854526 3.33066911z" fill="#979797" transform="translate(-158.671876 -1.546832)"/></svg>